<svg width="24" height="24" viewBox="0 0 24 24" fill="none" xmlns="http://www.w3.org/2000/svg">
<path d="M12 8.01318C6.615 8.01318 2.25 9.79818 2.25 12.0002C2.25 14.2022 6.615 15.9872 12 15.9872C17.385 15.9872 21.75 14.2022 21.75 12.0002C21.75 9.79818 17.385 8.01318 12 8.01318Z" stroke="white" stroke-width="1.5" stroke-linecap="round" stroke-linejoin="round"/>
<path d="M15.423 10.0061C12.731 5.30214 9.01601 2.38114 7.12501 3.48214C5.23501 4.58314 5.88501 9.28914 8.57701 13.9941C11.269 18.6981 14.985 21.6191 16.875 20.5181C18.765 19.4171 18.115 14.7111 15.423 10.0061Z" stroke="white" stroke-width="1.5" stroke-linecap="round" stroke-linejoin="round"/>
<path d="M15.423 13.9943C18.116 9.28932 18.766 4.58432 16.875 3.48232C14.985 2.38232 11.269 5.30231 8.57701 10.0063C5.88501 14.7103 5.23501 19.4163 7.12501 20.5183C9.01501 21.6183 12.731 18.6983 15.423 13.9943Z" stroke="white" stroke-width="1.5" stroke-linecap="round" stroke-linejoin="round"/>
<path d="M12 13.5C12.8284 13.5 13.5 12.8284 13.5 12C13.5 11.1716 12.8284 10.5 12 10.5C11.1716 10.5 10.5 11.1716 10.5 12C10.5 12.8284 11.1716 13.5 12 13.5Z" fill="white"/>
</svg>
