<svg width="22" height="23" viewBox="0 0 22 23" fill="none" xmlns="http://www.w3.org/2000/svg">
<path d="M18.7859 3.34369C17.7729 2.27922 16.5664 1.43534 15.2368 0.861274C13.9071 0.287207 12.4809 -0.00554991 11.0414 7.96732e-05C5.00967 7.96732e-05 0.0939226 5.11469 0.0883978 11.3937C0.0883978 13.4047 0.593923 15.3612 1.54834 17.0933L0 23L5.80663 21.4159C7.41227 22.3276 9.21237 22.8046 11.0414 22.8031H11.047C17.0801 22.8031 21.9945 17.6885 22 11.4037C22.0012 9.90594 21.7178 8.4227 21.1659 7.03941C20.6141 5.65612 19.8061 4.4001 18.7859 3.34369ZM11.0414 20.8739C9.41046 20.8726 7.8097 20.4159 6.40608 19.5514L6.07458 19.3444L2.62983 20.2846L3.54972 16.7871L3.33425 16.4263C2.42238 14.9174 1.94012 13.1704 1.94337 11.3879C1.94337 6.17556 6.02762 1.92345 11.047 1.92345C12.2427 1.92122 13.4271 2.16534 14.5318 2.64175C15.6365 3.11816 16.6396 3.81743 17.4834 4.69925C18.33 5.57777 19.0011 6.62196 19.4581 7.77165C19.9152 8.92133 20.1491 10.1538 20.1464 11.398C20.1409 16.629 16.0566 20.8739 11.0414 20.8739ZM16.0345 13.7813C15.7624 13.639 14.4185 12.9505 14.1657 12.8527C13.9144 12.7593 13.7307 12.7104 13.5511 12.995C13.3674 13.2782 12.8425 13.9237 12.6851 14.1091C12.5276 14.3003 12.3646 14.3218 12.0912 14.181C11.8191 14.0372 10.9365 13.7382 9.89226 12.765C9.07735 12.0104 8.53177 11.076 8.36878 10.7928C8.21132 10.5082 8.35359 10.3558 8.49033 10.2135C8.6105 10.087 8.76243 9.87998 8.89917 9.71611C9.03729 9.55223 9.08287 9.43148 9.17265 9.24173C9.26243 9.04911 9.21961 8.88524 9.15193 8.74292C9.08287 8.60061 8.53729 7.19618 8.30663 6.62981C8.08563 6.07062 7.8605 6.14825 7.69199 6.14106C7.53453 6.131 7.35083 6.131 7.16713 6.131C7.02842 6.13467 6.89193 6.1681 6.7662 6.2292C6.64048 6.29029 6.52822 6.37774 6.43646 6.48606C6.18508 6.77068 5.48204 7.45924 5.48204 8.86367C5.48204 10.2681 6.46271 11.6179 6.60083 11.8091C6.73619 12.0003 8.52624 14.8738 11.2735 16.1101C11.9226 16.4048 12.4337 16.5787 12.8329 16.711C13.4889 16.9295 14.0815 16.8964 14.5539 16.826C15.0787 16.7426 16.1713 16.136 16.4019 15.4704C16.6284 14.8034 16.6285 14.2342 16.5594 14.1148C16.4917 13.9941 16.308 13.9237 16.0345 13.7813Z" fill="black"/>
</svg>
